<svg xmlns="http://www.w3.org/2000/svg" viewBox="0 0 64 64">
  <rect width="64" height="64" rx="14" fill="#e8e1c7"/>
  <path fill="#4f5c48" d="M18 12h23c5 0 9 4 9 9v31H22c-5 0-9-4-9-9V17c0-3 2-5 5-5z"/>
  <path fill="#f2ead8" d="M22 17h20c2 0 4 2 4 4v26H24c-3 0-6-3-6-6V21c0-2 2-4 4-4z"/>
  <path fill="#87977f" d="M28 30c0-7 5-12 13-12 2 0 4 0 6 1v8c-2-2-4-3-7-3-4 0-7 3-7 7s3 7 7 7c3 0 5-1 7-3v8c-2 1-4 2-7 2-7 0-12-5-12-12z"/>
  <path fill="#c7bca4" d="M21 48h25v3H22c-4 0-7-2-9-5 2 1 5 2 8 2z"/>
</svg>
